<?xml version="1.0" encoding="UTF-8"?>
<svg id="Capa_2" data-name="Capa 2" xmlns="http://www.w3.org/2000/svg" viewBox="0 0 335.57 51.91">
  <g id="Capa_2-2" data-name="Capa 2">
    <g>
      <g>
        <path d="m16.99,6.39c-.87-.73-1.89-1.24-3.03-1.53-1.16-.29-2.38-.44-3.69-.44-.55,0-1.1.07-1.64.19-.54.14-1.02.3-1.46.52-.44.22-.78.48-1.07.78-.28.3-.41.62-.41.94,0,.34.06.66.15.94s.32.51.66.7c.33.19.83.34,1.49.45.66.12,1.54.18,2.64.18,2.38,0,4.31.19,5.78.56,1.47.39,2.6.89,3.39,1.53.78.65,1.31,1.39,1.57,2.23.26.85.4,1.72.4,2.63,0,1.38-.29,2.56-.88,3.57-.58,1-1.39,1.84-2.44,2.49-1.03.66-2.26,1.16-3.66,1.49-1.4.33-2.9.51-4.5.51-2.01,0-3.92-.43-5.71-1.29-1.79-.87-3.32-2.04-4.57-3.52l3.24-3.29c.36.36.73.74,1.12,1.18s.87.85,1.4,1.23c.54.39,1.17.69,1.9.94.73.25,1.61.37,2.63.37,2.11,0,3.8-.3,5.08-.92,1.28-.62,1.93-1.53,1.93-2.75,0-1.02-.58-1.69-1.73-2.01-1.16-.32-2.9-.48-5.27-.48-1.38,0-2.63-.11-3.77-.36-1.14-.23-2.12-.62-2.95-1.16-.84-.54-1.49-1.24-1.95-2.11-.47-.87-.7-1.9-.7-3.13,0-1.02.26-1.95.77-2.81.51-.84,1.18-1.57,2.04-2.16.84-.61,1.84-1.06,2.97-1.38,1.14-.32,2.34-.48,3.59-.48,1.67,0,3.28.19,4.86.56,1.57.39,3.19,1.14,4.86,2.27l-3.01,3.5v.06Z"/>
        <rect x="29.64" y=".78" width="4.46" height="22.67"/>
        <polygon points="44.6 23.46 44.6 .78 49.3 .78 49.3 18.9 61.33 18.9 61.33 23.46 44.6 23.46"/>
        <rect x="67.9" y=".78" width="4.46" height="22.67"/>
        <path d="m102.54,20.93c-1.25,1.07-2.68,1.89-4.3,2.44-1.61.54-3.28.81-5.04.81s-3.39-.28-5-.81c-1.61-.54-3.03-1.32-4.27-2.37-1.24-1.03-2.23-2.3-2.97-3.81-.74-1.5-1.12-3.22-1.12-5.15s.39-3.63,1.14-5.12c.76-1.49,1.76-2.74,3.01-3.76,1.25-1.02,2.68-1.79,4.3-2.31s3.25-.78,4.94-.78,3.29.25,4.86.72c1.57.48,2.99,1.18,4.24,2.12l-3.01,3.5c-.85-.58-1.8-1.03-2.86-1.34-1.07-.3-2.13-.45-3.22-.45s-2.18.15-3.19.45-1.94.77-2.75,1.38-1.47,1.39-1.95,2.34c-.48.95-.73,2.07-.73,3.35s.25,2.4.74,3.33,1.16,1.71,1.97,2.33c.81.62,1.75,1.07,2.78,1.38s2.09.45,3.17.45c1.23,0,2.41-.21,3.57-.63s2.16-1.03,3.04-1.82l2.63,3.76h.03Z"/>
        <path d="m130.29,11.95c0-1.25-.25-2.34-.74-3.26-.5-.92-1.16-1.68-1.97-2.27-.81-.59-1.73-1.03-2.78-1.31-1.03-.28-2.09-.41-3.17-.41s-2.18.15-3.21.44-1.95.74-2.75,1.36c-.8.61-1.45,1.39-1.94,2.33s-.74,2.04-.74,3.33.25,2.4.74,3.33,1.16,1.71,1.97,2.33c.81.62,1.73,1.06,2.77,1.36,1.03.29,2.11.44,3.21.44s2.12-.17,3.14-.51c1.02-.33,1.94-.83,2.75-1.46.81-.65,1.47-1.43,1.97-2.38s.74-2.04.74-3.26m4.78-.04c0,1.93-.39,3.65-1.14,5.16s-1.76,2.81-3,3.85-2.67,1.86-4.3,2.41-3.29.83-5.02.83-3.39-.28-5-.81c-1.61-.54-3.03-1.32-4.28-2.37-1.24-1.03-2.23-2.31-2.99-3.81-.74-1.5-1.12-3.22-1.12-5.15s.39-3.63,1.14-5.12,1.76-2.74,3.03-3.76c1.25-1.02,2.68-1.79,4.3-2.33,1.61-.52,3.26-.78,4.96-.78s3.36.25,4.98.74c1.62.5,3.06,1.24,4.3,2.23,1.24.99,2.24,2.23,3,3.72.76,1.49,1.14,3.21,1.14,5.16"/>
        <polygon points="146.13 .78 159.83 16.55 159.83 .78 164.35 .78 164.35 23.46 159.83 23.46 147.22 8.7 147.22 23.46 142.72 23.46 142.72 4.16 140.49 .78 146.13 .78"/>
        <polygon points="198.89 23.46 193.07 23.46 183.21 .78 188.29 .78 195.96 18.86 203.79 .78 208.91 .78 198.89 23.46"/>
        <path d="m227.43,15.93l-4.42-8.4-5.38,10.38c.73-.39,1.86-.8,3.37-1.27,1.51-.47,3.46-.7,5.82-.7h.62-.01ZM219.19.26h4.86l12.25,23.2h-4.94l-1.79-3.41h-2.71c-1.4,0-2.79.12-4.16.34-1.38.23-2.62.52-3.74.85-1.13.33-2.08.69-2.85,1.05-.77.37-1.25.66-1.42.89l-.14.26h-4.72l10.86-20.36-1.49-2.85v.03Z"/>
        <polygon points="242.49 23.46 242.49 .78 247.17 .78 247.17 18.9 259.21 18.9 259.21 23.46 242.49 23.46"/>
        <polygon points="265.78 23.46 265.78 .78 270.46 .78 270.46 18.9 282.51 18.9 282.51 23.46 265.78 23.46"/>
        <path d="m293.98,18.9h14.22v4.56h-18.7V.78h17.86v4.5h-13.4v5.52c.99-.58,2.09-.95,3.3-1.09,1.21-.15,2.48-.22,3.79-.22h3.33v4.52h-3.33c-1.05,0-1.91.03-2.6.07-.69.04-1.28.11-1.78.19s-.95.22-1.36.4-.85.4-1.35.66v3.59-.03Z"/>
        <polygon points="326.19 14.3 326.19 23.46 321.73 23.46 321.73 14.3 312.19 .78 317.88 .78 323.92 9.71 330.13 .78 335.57 .78 326.19 14.3"/>
      </g>
      <g>
        <polygon points="12.39 51.36 7.78 51.36 0 33.45 4.02 33.45 10.06 47.74 16.26 33.45 20.31 33.45 12.39 51.36"/>
        <rect x="32.75" y="33.45" width="3.52" height="17.91"/>
        <path d="m67.66,49.37c-.99.85-2.12,1.5-3.39,1.91-1.27.43-2.59.63-3.98.63s-2.67-.21-3.94-.63c-1.27-.43-2.4-1.05-3.37-1.87-.98-.81-1.76-1.82-2.35-3s-.88-2.55-.88-4.06.3-2.88.89-4.05c.61-1.17,1.39-2.16,2.38-2.97.99-.81,2.12-1.42,3.39-1.83,1.27-.41,2.57-.62,3.91-.62s2.59.19,3.84.56c1.24.39,2.37.94,3.36,1.68l-2.38,2.77c-.67-.47-1.42-.81-2.26-1.06s-1.69-.36-2.55-.36-1.72.12-2.52.36c-.81.25-1.53.61-2.18,1.09s-1.16,1.1-1.54,1.84c-.39.74-.56,1.62-.56,2.64s.19,1.89.59,2.63c.39.74.91,1.35,1.56,1.83.65.48,1.38.85,2.2,1.09.81.25,1.65.36,2.51.36,1.34,0,2.59-.32,3.77-.94v-2.86h-1.83l-1.51-3.36h6.88v8.19l-.04.03Z"/>
        <path d="m97.37,42.28c0-.99-.19-1.84-.59-2.57s-.91-1.32-1.56-1.8c-.65-.47-1.38-.81-2.19-1.03s-1.65-.33-2.51-.33-1.72.11-2.53.34-1.54.59-2.18,1.07-1.14,1.1-1.53,1.83c-.4.74-.59,1.61-.59,2.63s.19,1.89.59,2.63c.39.74.91,1.35,1.56,1.83.65.48,1.38.84,2.19,1.07s1.67.34,2.53.34,1.68-.14,2.48-.4,1.53-.65,2.18-1.16c.65-.51,1.16-1.13,1.56-1.89.39-.74.59-1.61.59-2.57m3.77-.04c0,1.53-.3,2.88-.89,4.07-.61,1.2-1.39,2.22-2.37,3.04s-2.11,1.46-3.39,1.9c-1.28.44-2.6.66-3.96.66s-2.68-.21-3.95-.63c-1.27-.43-2.4-1.05-3.37-1.87-.98-.83-1.76-1.82-2.35-3.01-.59-1.18-.88-2.55-.88-4.06s.3-2.86.89-4.05c.61-1.17,1.4-2.16,2.4-2.97.99-.81,2.12-1.42,3.39-1.83,1.27-.41,2.57-.62,3.91-.62s2.66.19,3.94.59c1.28.39,2.41.98,3.39,1.76s1.78,1.76,2.37,2.93c.61,1.17.89,2.53.89,4.07"/>
      </g>
    </g>
  </g>
</svg>