<?xml version="1.0" encoding="UTF-8"?>
<svg id="Capa_2" data-name="Capa 2" xmlns="http://www.w3.org/2000/svg" viewBox="0 0 243.75 127.9">
  <defs>
    <style>
      .cls-1 {
        fill: #e00f00;
      }

      .cls-2 {
        fill: #fff;
      }

      .cls-3 {
        fill: #a10000;
      }
    </style>
  </defs>
  <g id="Capa_1-2" data-name="Capa 1">
    <g>
      <polygon class="cls-1" points="178.74 34.73 166.49 0 150.72 0 162.97 34.73 178.74 34.73"/>
      <path class="cls-1" d="m130.7,26.85h-6.71v7.88h23.24c-3.91-4.8-9.86-7.88-16.53-7.88"/>
      <path class="cls-1" d="m91.75,21.3c0,5.08,1.79,9.76,4.78,13.42h23.24v-7.89h-6.71c-3.05,0-5.53-2.48-5.53-5.53s2.48-5.53,5.53-5.53h38.95S146.5,0,146.5,0h-33.45C101.3,0,91.75,9.56,91.75,21.3"/>
      <polygon class="cls-1" points="80.78 34.73 93.02 0 77.26 0 65.01 34.73 80.78 34.73"/>
      <path class="cls-3" d="m113.05,42.61h6.71v-7.88h-23.24c3.91,4.8,9.86,7.88,16.53,7.88"/>
      <polygon class="cls-3" points="65.01 34.73 77.26 69.45 93.03 69.45 80.78 34.73 65.01 34.73"/>
      <polygon class="cls-3" points="178.74 34.73 178.74 34.73 162.97 34.73 150.72 69.45 166.49 69.45 178.74 34.73"/>
      <path class="cls-3" d="m152,48.15c0-5.08-1.79-9.76-4.78-13.42h-23.24v7.89h6.71c3.05,0,5.53,2.48,5.53,5.53s-2.48,5.53-5.53,5.53h-38.95s5.5,15.77,5.5,15.77h33.45c11.75,0,21.3-9.56,21.3-21.3"/>
      <path class="cls-2" d="m12.34,92.6c-.63-.53-1.37-.9-2.2-1.11-.84-.21-1.73-.32-2.68-.32-.4,0-.8.05-1.19.14-.39.1-.74.22-1.06.38-.32.16-.57.35-.78.57-.2.22-.3.45-.3.68,0,.25.04.48.11.68.07.2.23.37.48.51.24.14.6.25,1.08.33.48.09,1.12.13,1.92.13,1.73,0,3.13.14,4.2.41,1.07.28,1.89.65,2.46,1.11.57.47.95,1.01,1.14,1.62.19.62.29,1.25.29,1.91,0,1-.21,1.86-.64,2.59-.42.73-1.01,1.34-1.77,1.81-.75.48-1.64.84-2.66,1.08-1.02.24-2.11.37-3.27.37-1.46,0-2.85-.31-4.15-.94-1.3-.63-2.41-1.48-3.32-2.56l2.35-2.39c.26.26.53.54.81.86s.63.62,1.02.89c.39.28.85.5,1.38.68.53.18,1.17.27,1.91.27,1.53,0,2.76-.22,3.69-.67.93-.45,1.4-1.11,1.4-2,0-.74-.42-1.23-1.26-1.46-.84-.23-2.11-.35-3.83-.35-1,0-1.91-.08-2.74-.26-.83-.17-1.54-.45-2.14-.84-.61-.39-1.08-.9-1.42-1.53-.34-.63-.51-1.38-.51-2.27,0-.74.19-1.42.56-2.04.37-.61.86-1.14,1.48-1.57.61-.44,1.34-.77,2.16-1,.83-.23,1.7-.35,2.61-.35,1.21,0,2.38.14,3.53.41,1.14.28,2.32.83,3.53,1.65l-2.19,2.54Z"/>
      <rect class="cls-2" x="21.53" y="88.53" width="3.24" height="16.47"/>
      <polygon class="cls-2" points="32.4 105 32.4 88.53 35.81 88.53 35.81 101.69 44.55 101.69 44.55 105 32.4 105"/>
      <rect class="cls-2" x="49.32" y="88.53" width="3.24" height="16.47"/>
      <path class="cls-2" d="m74.48,103.16c-.91.78-1.95,1.37-3.12,1.77-1.17.39-2.38.59-3.66.59s-2.46-.2-3.63-.59c-1.17-.39-2.2-.96-3.1-1.72-.9-.75-1.62-1.67-2.16-2.77-.54-1.09-.81-2.34-.81-3.74s.28-2.64.83-3.72c.55-1.08,1.28-1.99,2.19-2.73.91-.74,1.95-1.3,3.12-1.68,1.17-.38,2.36-.57,3.59-.57s2.39.18,3.53.52c1.14.35,2.17.86,3.08,1.54l-2.19,2.54c-.62-.42-1.31-.75-2.08-.97-.78-.22-1.55-.33-2.34-.33s-1.58.11-2.32.33c-.74.22-1.41.56-2,1-.59.44-1.07,1.01-1.42,1.7-.35.69-.53,1.5-.53,2.43s.18,1.74.54,2.42c.36.68.84,1.24,1.43,1.69.59.45,1.27.78,2.02,1,.75.22,1.52.33,2.3.33.89,0,1.75-.15,2.59-.46.84-.31,1.57-.75,2.21-1.32l1.91,2.73Z"/>
      <path class="cls-2" d="m94.64,96.64c0-.91-.18-1.7-.54-2.37-.36-.67-.84-1.22-1.43-1.65-.59-.43-1.26-.75-2.02-.95-.75-.2-1.52-.3-2.3-.3s-1.58.11-2.33.32c-.75.21-1.42.54-2,.99-.58.44-1.05,1.01-1.41,1.69-.36.68-.54,1.48-.54,2.42s.18,1.74.54,2.42c.36.68.84,1.24,1.43,1.69.59.45,1.26.77,2.01.99.75.21,1.53.32,2.33.32s1.54-.12,2.28-.37c.74-.24,1.41-.6,2-1.06.59-.47,1.07-1.04,1.43-1.73.36-.69.54-1.48.54-2.37m3.47-.03c0,1.4-.28,2.65-.83,3.75-.55,1.1-1.28,2.04-2.18,2.8-.9.76-1.94,1.35-3.12,1.75-1.18.4-2.39.6-3.65.6s-2.46-.2-3.63-.59c-1.17-.39-2.2-.96-3.11-1.72-.9-.75-1.62-1.68-2.17-2.77-.54-1.09-.81-2.34-.81-3.74s.28-2.64.83-3.72c.55-1.08,1.28-1.99,2.2-2.73.91-.74,1.95-1.3,3.12-1.69,1.17-.38,2.37-.57,3.6-.57s2.44.18,3.62.54c1.18.36,2.22.9,3.12,1.62.9.72,1.63,1.62,2.18,2.7.55,1.08.83,2.33.83,3.75"/>
      <polygon class="cls-2" points="106.15 88.53 116.1 99.98 116.1 88.53 119.38 88.53 119.38 105 116.1 105 106.94 94.28 106.94 105 103.67 105 103.67 90.98 102.05 88.53 106.15 88.53"/>
      <polygon class="cls-2" points="144.47 105 140.24 105 133.08 88.53 136.77 88.53 142.34 101.66 148.03 88.53 151.75 88.53 144.47 105"/>
      <path class="cls-2" d="m165.2,99.53l-3.21-6.1-3.91,7.54c.53-.28,1.35-.58,2.45-.92,1.1-.34,2.51-.51,4.23-.51h.45Zm-5.98-11.38h3.53l8.9,16.85h-3.59l-1.3-2.48h-1.97c-1.02,0-2.03.09-3.02.25-1,.17-1.9.38-2.72.62-.82.24-1.51.5-2.07.76-.56.27-.91.48-1.03.65l-.1.19h-3.43l7.89-14.79-1.08-2.07Z"/>
      <polygon class="cls-2" points="176.14 105 176.14 88.53 179.54 88.53 179.54 101.69 188.29 101.69 188.29 105 176.14 105"/>
      <polygon class="cls-2" points="193.06 105 193.06 88.53 196.46 88.53 196.46 101.69 205.21 101.69 205.21 105 193.06 105"/>
      <path class="cls-2" d="m213.54,101.69h10.33v3.31h-13.58v-16.47h12.97v3.27h-9.73v4.01c.72-.42,1.52-.69,2.4-.79.88-.11,1.8-.16,2.75-.16h2.42v3.28h-2.42c-.76,0-1.39.02-1.89.05-.5.03-.93.08-1.29.14-.36.06-.69.16-.99.29-.3.13-.62.29-.98.48v2.61Z"/>
      <polygon class="cls-2" points="236.94 98.35 236.94 105 233.7 105 233.7 98.35 226.77 88.53 230.9 88.53 235.29 95.01 239.8 88.53 243.75 88.53 236.94 98.35"/>
      <polygon class="cls-2" points="94.14 127.5 90.79 127.5 85.14 114.49 88.06 114.49 92.45 124.87 96.95 114.49 99.89 114.49 94.14 127.5"/>
      <rect class="cls-2" x="108.93" y="114.49" width="2.56" height="13.01"/>
      <path class="cls-2" d="m134.29,126.05c-.72.62-1.54,1.09-2.46,1.39-.92.31-1.88.46-2.89.46s-1.94-.15-2.86-.46c-.92-.31-1.74-.76-2.45-1.36-.71-.59-1.28-1.32-1.71-2.18-.43-.86-.64-1.85-.64-2.95s.22-2.09.65-2.94c.44-.85,1.01-1.57,1.73-2.16.72-.59,1.54-1.03,2.46-1.33.92-.3,1.87-.45,2.84-.45s1.88.14,2.79.41c.9.28,1.72.68,2.44,1.22l-1.73,2.01c-.49-.34-1.03-.59-1.64-.77-.61-.18-1.23-.26-1.85-.26s-1.25.09-1.83.26c-.59.18-1.11.44-1.58.79-.47.35-.84.8-1.12,1.34-.28.54-.41,1.18-.41,1.92s.14,1.37.43,1.91c.28.54.66.98,1.13,1.33.47.35,1,.62,1.6.79.59.18,1.2.26,1.82.26.97,0,1.88-.23,2.74-.68v-2.08h-1.33l-1.1-2.44h5v5.95Z"/>
      <path class="cls-2" d="m155.87,120.9c0-.72-.14-1.34-.43-1.87s-.66-.96-1.13-1.31c-.47-.34-1-.59-1.59-.75s-1.2-.24-1.82-.24-1.25.08-1.84.25c-.59.17-1.12.43-1.58.78-.46.35-.83.8-1.11,1.33-.29.54-.43,1.17-.43,1.91s.14,1.37.43,1.91c.28.54.66.98,1.13,1.33.47.35,1,.61,1.59.78.59.17,1.21.25,1.84.25s1.22-.1,1.8-.29c.58-.19,1.11-.47,1.58-.84.47-.37.84-.82,1.13-1.37.28-.54.43-1.17.43-1.87m2.74-.03c0,1.11-.22,2.09-.65,2.96-.44.87-1.01,1.61-1.72,2.21-.71.6-1.53,1.06-2.46,1.38-.93.32-1.89.48-2.88.48s-1.95-.15-2.87-.46c-.92-.31-1.74-.76-2.45-1.36-.71-.6-1.28-1.32-1.71-2.19-.43-.86-.64-1.85-.64-2.95s.22-2.08.65-2.94c.44-.85,1.02-1.57,1.74-2.16.72-.59,1.54-1.03,2.46-1.33.92-.3,1.87-.45,2.84-.45s1.93.14,2.86.43c.93.28,1.75.71,2.46,1.28.71.57,1.29,1.28,1.72,2.13.44.85.65,1.84.65,2.96"/>
    </g>
  </g>
</svg>