<?xml version="1.0" encoding="UTF-8"?>
<svg id="Capa_2" data-name="Capa 2" xmlns="http://www.w3.org/2000/svg" viewBox="0 0 284.16 42.56">
  <defs>
    <style>
      .cls-1 {
        fill: #e00f00;
      }

      .cls-2 {
        fill: #fff;
      }

      .cls-3 {
        fill: #a10000;
      }
    </style>
  </defs>
  <g id="Capa_1-2" data-name="Capa 1">
    <g>
      <path class="cls-2" d="m95.31,6.85c-.52-.43-1.12-.73-1.8-.91-.68-.17-1.41-.26-2.18-.26-.33,0-.65.04-.97.12-.32.08-.61.18-.87.31-.26.13-.47.29-.63.47-.16.18-.25.37-.25.56,0,.21.03.39.09.56.06.16.19.3.39.41.2.11.49.2.88.27.39.07.91.1,1.57.1,1.42,0,2.56.11,3.43.34.87.23,1.54.53,2.01.91.47.38.78.82.93,1.32.15.5.23,1.02.23,1.56,0,.81-.17,1.52-.52,2.11-.35.6-.83,1.09-1.44,1.48-.61.39-1.34.68-2.17.88-.83.2-1.72.3-2.67.3-1.19,0-2.32-.26-3.39-.77-1.06-.51-1.97-1.21-2.71-2.09l1.92-1.95c.21.21.43.44.66.7.23.26.51.5.83.73s.7.41,1.13.56c.43.15.95.22,1.56.22,1.25,0,2.25-.18,3.01-.54.76-.36,1.14-.91,1.14-1.64,0-.61-.34-1-1.02-1.19-.68-.19-1.73-.29-3.13-.29-.81,0-1.56-.07-2.23-.21-.67-.14-1.26-.37-1.75-.69-.49-.32-.88-.73-1.15-1.25-.28-.51-.42-1.13-.42-1.86,0-.61.15-1.16.45-1.66.3-.5.7-.93,1.21-1.28.5-.35,1.09-.63,1.76-.82.68-.19,1.38-.28,2.13-.28.99,0,1.95.11,2.88.34.93.22,1.9.67,2.88,1.35l-1.79,2.08Z"/>
      <rect class="cls-2" x="102.81" y="3.53" width="2.65" height="13.44"/>
      <polygon class="cls-2" points="111.69 16.97 111.69 3.53 114.46 3.53 114.46 14.27 121.6 14.27 121.6 16.97 111.69 16.97"/>
      <rect class="cls-2" x="125.49" y="3.53" width="2.65" height="13.44"/>
      <g>
        <path class="cls-2" d="m146.02,15.46c-.74.64-1.59,1.12-2.54,1.44-.95.32-1.95.48-2.98.48s-2.01-.16-2.96-.48c-.95-.32-1.79-.79-2.53-1.4-.73-.61-1.32-1.37-1.76-2.26-.44-.89-.66-1.91-.66-3.05s.22-2.15.68-3.04c.45-.88,1.05-1.63,1.79-2.23.74-.61,1.59-1.06,2.54-1.38.95-.31,1.93-.47,2.93-.47s1.95.14,2.88.43c.93.29,1.77.71,2.52,1.26l-1.79,2.08c-.5-.35-1.07-.61-1.7-.79-.63-.18-1.27-.27-1.91-.27s-1.29.09-1.89.27c-.61.18-1.15.46-1.63.82-.49.36-.87.83-1.15,1.39-.29.56-.43,1.22-.43,1.99s.15,1.42.44,1.97c.29.55.68,1.01,1.17,1.38.48.36,1.03.64,1.65.82.61.18,1.24.27,1.88.27.73,0,1.43-.13,2.11-.38.68-.25,1.29-.61,1.8-1.08l1.56,2.23Z"/>
        <path class="cls-2" d="m162.47,10.14c0-.74-.15-1.39-.44-1.93-.29-.54-.68-.99-1.17-1.35-.48-.35-1.03-.61-1.64-.78-.61-.16-1.24-.25-1.88-.25s-1.29.09-1.9.26c-.61.17-1.16.44-1.63.8-.47.36-.86.82-1.15,1.38-.29.55-.44,1.21-.44,1.97s.15,1.42.44,1.97c.29.55.68,1.01,1.17,1.38.48.36,1.03.63,1.64.8.61.17,1.25.26,1.9.26s1.26-.1,1.86-.3c.6-.2,1.15-.49,1.63-.87s.87-.85,1.17-1.41c.29-.56.44-1.21.44-1.93m2.83-.03c0,1.14-.23,2.16-.68,3.06-.45.9-1.04,1.66-1.78,2.28-.74.62-1.59,1.1-2.55,1.43-.96.33-1.95.49-2.98.49s-2.01-.16-2.96-.48c-.95-.32-1.8-.79-2.53-1.4-.74-.61-1.33-1.37-1.77-2.26-.44-.89-.66-1.91-.66-3.05s.23-2.15.68-3.04c.45-.88,1.05-1.63,1.79-2.23.75-.61,1.6-1.06,2.55-1.38.95-.31,1.93-.47,2.94-.47s1.99.15,2.95.44c.96.29,1.81.74,2.55,1.32.74.59,1.33,1.32,1.78,2.21.45.88.68,1.9.68,3.06"/>
      </g>
      <polygon class="cls-2" points="171.87 3.52 179.99 12.87 179.99 3.52 182.66 3.52 182.66 16.97 179.99 16.97 172.52 8.22 172.52 16.97 169.84 16.97 169.84 5.52 168.52 3.52 171.87 3.52"/>
      <polygon class="cls-2" points="203.14 16.97 199.69 16.97 193.85 3.53 196.86 3.53 201.4 14.24 206.05 3.53 209.08 3.53 203.14 16.97"/>
      <path class="cls-2" d="m220.06,12.5l-2.62-4.98-3.19,6.15c.43-.22,1.1-.47,2-.75.9-.28,2.05-.42,3.45-.42h.36Zm-4.88-9.29h2.88l7.27,13.75h-2.93l-1.06-2.02h-1.61c-.83,0-1.65.07-2.47.21-.81.14-1.55.31-2.22.51-.67.2-1.23.41-1.69.62-.46.22-.74.39-.84.53l-.08.15h-2.8l6.44-12.07-.88-1.69Z"/>
      <polygon class="cls-2" points="228.99 16.97 228.99 3.53 231.76 3.53 231.76 14.27 238.9 14.27 238.9 16.97 228.99 16.97"/>
      <polygon class="cls-2" points="242.79 16.97 242.79 3.53 245.57 3.53 245.57 14.27 252.71 14.27 252.71 16.97 242.79 16.97"/>
      <path class="cls-2" d="m259.51,14.27h8.43v2.7h-11.08V3.52h10.59v2.67h-7.94v3.27c.59-.35,1.24-.56,1.96-.65.72-.09,1.47-.13,2.24-.13h1.97v2.67h-1.97c-.62,0-1.14.01-1.54.04-.41.03-.76.07-1.05.12-.29.05-.56.13-.8.23s-.51.23-.8.39v2.13Z"/>
      <polygon class="cls-2" points="278.61 11.54 278.61 16.97 275.96 16.97 275.96 11.54 270.3 3.53 273.68 3.53 277.26 8.82 280.94 3.53 284.16 3.53 278.61 11.54"/>
      <polygon class="cls-2" points="92.58 35.33 89.85 35.33 85.24 24.71 87.62 24.71 91.21 33.18 94.87 24.71 97.27 24.71 92.58 35.33"/>
      <rect class="cls-2" x="104.65" y="24.72" width="2.09" height="10.62"/>
      <g>
        <path class="cls-2" d="m125.35,34.14c-.59.51-1.26.89-2.01,1.14-.75.25-1.54.38-2.36.38s-1.58-.13-2.34-.38c-.75-.25-1.42-.62-2-1.11-.58-.48-1.05-1.08-1.39-1.78-.35-.7-.52-1.51-.52-2.41s.18-1.7.53-2.4c.36-.7.83-1.28,1.42-1.76.59-.48,1.26-.84,2.01-1.09.75-.25,1.52-.37,2.32-.37s1.54.11,2.27.34c.74.23,1.4.56,1.99.99l-1.41,1.64c-.4-.27-.84-.48-1.34-.63-.5-.14-1-.21-1.51-.21s-1.02.07-1.5.21c-.48.14-.91.36-1.29.65-.38.29-.69.65-.91,1.1-.23.44-.34.97-.34,1.57s.12,1.12.35,1.56c.23.44.54.8.92,1.09.38.29.82.5,1.3.65.49.14.98.21,1.49.21.79,0,1.54-.18,2.23-.55v-1.7h-1.09l-.9-1.99h4.08v4.86Z"/>
        <path class="cls-2" d="m142.96,29.94c0-.59-.12-1.1-.35-1.53-.23-.43-.54-.79-.92-1.07-.38-.28-.82-.48-1.3-.61s-.98-.2-1.48-.2-1.02.07-1.5.21c-.48.14-.91.35-1.29.63-.38.29-.68.65-.91,1.09-.23.44-.35.96-.35,1.56s.11,1.12.35,1.56c.23.44.54.8.92,1.09.38.29.81.5,1.3.64.48.14.98.21,1.5.21s.99-.08,1.47-.24c.48-.16.91-.39,1.29-.69.38-.3.69-.67.92-1.12.23-.44.35-.95.35-1.53m2.23-.02c0,.9-.18,1.71-.53,2.42-.36.71-.82,1.31-1.41,1.8s-1.25.87-2.01,1.13c-.76.26-1.54.39-2.35.39s-1.59-.13-2.34-.38c-.75-.25-1.42-.62-2-1.11-.58-.49-1.05-1.08-1.4-1.78-.35-.7-.52-1.51-.52-2.41s.18-1.7.53-2.4c.36-.7.83-1.28,1.42-1.76.59-.48,1.26-.84,2.01-1.09.75-.25,1.52-.37,2.32-.37s1.57.12,2.33.35c.76.23,1.43.58,2.01,1.05.58.46,1.05,1.04,1.41,1.74.36.7.53,1.5.53,2.42"/>
      </g>
      <polygon class="cls-1" points="69.69 21.28 62.19 0 52.52 0 60.03 21.28 69.69 21.28"/>
      <g>
        <path class="cls-1" d="m40.25,16.45h-4.11v4.83h14.24c-2.4-2.94-6.05-4.83-10.13-4.83"/>
        <path class="cls-1" d="m16.38,13.05c0,3.12,1.1,5.98,2.93,8.23h14.24v-4.83h-4.11c-1.87,0-3.39-1.52-3.39-3.39s1.52-3.39,3.39-3.39h23.87s-3.37-9.66-3.37-9.66h-20.49c-7.2,0-13.05,5.86-13.05,13.05"/>
      </g>
      <polygon class="cls-1" points="9.66 21.28 17.17 0 7.5 0 0 21.28 9.66 21.28"/>
      <path class="cls-3" d="m29.44,26.11h4.11v-4.83h-14.24c2.4,2.94,6.05,4.83,10.13,4.83"/>
      <polygon class="cls-3" points="0 21.28 7.5 42.56 17.17 42.56 9.66 21.28 0 21.28"/>
      <polygon class="cls-3" points="69.69 21.28 69.69 21.28 60.03 21.28 52.52 42.56 62.19 42.56 69.69 21.28"/>
      <path class="cls-3" d="m53.31,29.51c0-3.12-1.1-5.98-2.93-8.22h-14.24v4.83h4.11c1.87,0,3.39,1.52,3.39,3.39s-1.52,3.39-3.39,3.39h-23.87s3.37,9.66,3.37,9.66h20.5c7.2,0,13.06-5.86,13.06-13.06"/>
    </g>
  </g>
</svg>