<?xml version="1.0" encoding="utf-8"?>
<!-- Generator: Adobe Illustrator 27.2.0, SVG Export Plug-In . SVG Version: 6.00 Build 0)  -->
<svg version="1.1" id="Capa_2_00000001643899992709465630000005620301695694961850_"
	 xmlns="http://www.w3.org/2000/svg" xmlns:xlink="http://www.w3.org/1999/xlink" x="0px" y="0px" viewBox="0 0 895.6 166.1"
	 style="enable-background:new 0 0 895.6 166.1;" xml:space="preserve">
<style type="text/css">
	.st0{fill:#FFFFFF;}
	.st1{fill:#25D366;}
</style>
<g id="Capa_1-2">
	<path class="st0" d="M43.6,0.9l4.6,113.9l38.4-76.3L84.4,0.9h38.7l7.5,110.7L180,0.9h48.5l-78.6,165.2H94l-3-52.8l-25.5,52.8H41.9
		c-9,0-16.8-3.1-23.3-9.3c-6.5-6.2-10.1-14-10.9-23.5L0,0.9H43.6z"/>
	<path class="st0" d="M254.8,165.6c-11.7-0.7-20.5-3.4-26.5-8s-10.5-10.8-13.6-18.6c-6.7-16.9-5.2-36.1,4.4-57.7
		c12.9-24.6,33.9-37.8,63.1-39.5h70.1l-29.6,124.3L254.8,165.6L254.8,165.6z M301.7,88.9h-0.1l3-13.1h-18.7
		c-10.1,0.2-18.2,2.9-24.3,8.2c-6,4.8-9.9,10.7-11.7,17.6c-5.5,19,0.1,28.7,16.7,28.9h25.4L301.7,88.9L301.7,88.9z"/>
	<path class="st0" d="M339.1,166.1l30.5-125.1h39.9l-30,125.1H339.1L339.1,166.1z M379.6,0.8h39.8l-7.5,29.4h-39.8
		C372.1,30.1,379.6,0.8,379.6,0.8z"/>
	<path class="st0" d="M457.5,41.5h39l-9,35.5h-21.3c-2.4,0-4.6,0.9-6.6,2.6c-1.9,1.7-3.2,3.9-3.9,6.5l-19.2,80h-39.2l21.4-90.1
		C424.4,55.9,437.3,44.4,457.5,41.5L457.5,41.5z"/>
	<path class="st0" d="M490.1,132h59.1c9.7-0.3,17.5-3.1,23.5-8.2c5.9-4.8,9.8-10.7,11.7-17.6c5.5-19-0.1-28.7-16.7-28.9H543
		l-11.6,43.2h-38.6L522.1,0.8h38.6l-9.3,41.4l28,0.1c11.7,0.7,20.5,3.4,26.5,8s10.5,10.8,13.6,18.6c6.7,17,5.2,36.2-4.3,57.7
		c-12.9,24.6-33.9,37.8-63.1,39.6H482L490.1,132L490.1,132z"/>
	<path class="st0" d="M808,123.7L837.8,0.8H877c-6.6,26.2-10,39.8-10.3,40.7h28.9l-8.7,36.1h-28.8c-2.1,8.7-3.8,16-5.2,21.7
		c-1.4,5.8-2.6,11-3.8,15.7c-1.1,4.7-1.8,7.6-2,8.8c-0.2,2,0.2,3.9,1.5,5.5c1.2,1.6,2.9,2.4,5.1,2.4H874l-8.2,34.4h-26.3
		c-10.8,0-19.3-4.2-25.5-12.7C807.6,144.8,805.7,134.9,808,123.7L808,123.7z"/>
	<g>
		<path class="st1" d="M718.1,162.9h-88.8v-82c0-44.7,36.2-80.9,80.9-80.9h8C762.8,0,799,36.2,799,80.9V82
			C799,126.7,762.8,162.9,718.1,162.9z"/>
		<path class="st0" d="M697.6,28.3L766,96.6c6.5,6.5,6.5,17,0,23.5l-13.6,13.6c-6.5,6.5-17,6.5-23.5,0l-68.3-68.3
			c-6.5-6.5-6.5-17,0-23.5l13.6-13.6C680.6,21.8,691.1,21.8,697.6,28.3z"/>
		<g>
			<circle class="st1" cx="690.9" cy="58.7" r="12.8"/>
			<circle class="st1" cx="735.6" cy="103.4" r="12.8"/>
		</g>
	</g>
</g>
</svg>
