<?xml version="1.0" encoding="UTF-8"?>
<svg id="Capa_2" data-name="Capa 2" xmlns="http://www.w3.org/2000/svg" viewBox="0 0 701.71 1308.39">
  <defs>
    <style>
      .cls-1 {
        fill: #1a1a1a;
      }
    </style>
  </defs>
  <g id="Capa_1-2" data-name="Capa 1">
    <g>
      <path d="m636.53,0H65.18C29.18,0,0,29.18,0,65.17v1178.04c0,36,29.18,65.18,65.18,65.18h571.36c35.99,0,65.17-29.18,65.17-65.18V65.17c0-35.99-29.18-65.17-65.17-65.17Z"/>
      <path class="cls-1" d="m395.02,48.33h-88.33c-5.52,0-10,4.48-10,10s4.48,10,10,10h88.33c5.52,0,10-4.48,10-10s-4.48-10-10-10Z"/>
      <path class="cls-1" d="m444.18,58.33c0,5.52-4.48,10-10,10s-10-4.48-10-10,4.48-10,10-10,10,4.48,10,10Z"/>
      <path class="cls-1" d="m257.53,58.33c0-5.52,4.48-10,10-10s10,4.48,10,10-4.48,10-10,10-10-4.48-10-10Z"/>
      <path class="cls-1" d="m391.05,1246.42c0,22.2-18,40.19-40.2,40.19s-40.2-18-40.2-40.19,18-40.2,40.2-40.2,40.2,18,40.2,40.2Z"/>
    </g>
  </g>
</svg>