<?xml version="1.0" encoding="UTF-8"?>
<svg xmlns="http://www.w3.org/2000/svg" xmlns:xlink="http://www.w3.org/1999/xlink" viewBox="0 0 1406.06 1244.23">
  <defs>
    <style>
      .cls-1 {
        fill: url(#linear-gradient-3);
        mix-blend-mode: multiply;
      }

      .cls-2 {
        fill: url(#linear-gradient-2);
      }

      .cls-3 {
        fill: #fff;
      }

      .cls-4 {
        fill: url(#linear-gradient-6);
      }

      .cls-5 {
        isolation: isolate;
      }

      .cls-6 {
        fill: url(#linear-gradient-5);
        mix-blend-mode: screen;
      }

      .cls-7 {
        fill: url(#linear-gradient-7);
      }

      .cls-8 {
        fill: url(#linear-gradient);
      }

      .cls-9 {
        fill: url(#linear-gradient-4);
      }
    </style>
    <linearGradient id="linear-gradient" x1="703.07" y1="1264.54" x2="703.07" y2="1189.36" gradientUnits="userSpaceOnUse">
      <stop offset="0" stop-color="#333"/>
      <stop offset=".3" stop-color="#424242"/>
      <stop offset=".34" stop-color="#575757"/>
      <stop offset=".46" stop-color="#979797"/>
      <stop offset=".57" stop-color="#c5c5c5"/>
      <stop offset=".64" stop-color="#e2e2e2"/>
      <stop offset=".69" stop-color="#ededed"/>
      <stop offset=".83" stop-color="#ebebeb"/>
      <stop offset=".89" stop-color="#e4e4e4"/>
      <stop offset=".92" stop-color="#d8d8d8"/>
      <stop offset=".95" stop-color="#c7c7c7"/>
      <stop offset=".98" stop-color="#b1b1b1"/>
      <stop offset="1" stop-color="#979797"/>
      <stop offset="1" stop-color="#969696"/>
    </linearGradient>
    <linearGradient id="linear-gradient-2" x1="703.03" y1="981.89" x2="703.03" y2="1267.56" gradientUnits="userSpaceOnUse">
      <stop offset="0" stop-color="#333"/>
      <stop offset=".05" stop-color="#707070"/>
      <stop offset=".11" stop-color="#bcbcbc"/>
      <stop offset=".15" stop-color="#ececec"/>
      <stop offset=".17" stop-color="#fff"/>
      <stop offset=".21" stop-color="#f9f9f9"/>
      <stop offset=".26" stop-color="#e9e9e9"/>
      <stop offset=".31" stop-color="#d0d0d0"/>
      <stop offset=".37" stop-color="#acacac"/>
      <stop offset=".42" stop-color="#868686"/>
      <stop offset=".46" stop-color="#7c7c7c"/>
      <stop offset=".54" stop-color="#717171"/>
      <stop offset=".62" stop-color="#6e6e6e"/>
      <stop offset=".87" stop-color="#ededed"/>
      <stop offset=".93" stop-color="#ebebeb"/>
      <stop offset=".95" stop-color="#e4e4e4"/>
      <stop offset=".97" stop-color="#d8d8d8"/>
      <stop offset=".98" stop-color="#c7c7c7"/>
      <stop offset=".99" stop-color="#b1b1b1"/>
      <stop offset="1" stop-color="#979797"/>
      <stop offset="1" stop-color="#969696"/>
    </linearGradient>
    <linearGradient id="linear-gradient-3" x1="703.03" y1="983.28" x2="703.03" y2="1022.8" gradientUnits="userSpaceOnUse">
      <stop offset="0" stop-color="#333"/>
      <stop offset=".14" stop-color="#707070"/>
      <stop offset=".33" stop-color="#bcbcbc"/>
      <stop offset=".47" stop-color="#ececec"/>
      <stop offset=".53" stop-color="#fff"/>
      <stop offset="1" stop-color="#fff"/>
    </linearGradient>
    <linearGradient id="linear-gradient-4" x1="703.03" y1="-580.32" x2="703.03" y2="1702.9" gradientUnits="userSpaceOnUse">
      <stop offset="0" stop-color="#333"/>
      <stop offset=".05" stop-color="#3c3c3c"/>
      <stop offset=".14" stop-color="#565656"/>
      <stop offset=".24" stop-color="#818181"/>
      <stop offset=".37" stop-color="#bcbcbc"/>
      <stop offset=".5" stop-color="#fff"/>
      <stop offset=".57" stop-color="#c8c8c8"/>
      <stop offset=".66" stop-color="#8c8c8c"/>
      <stop offset=".74" stop-color="#5a5a5a"/>
      <stop offset=".82" stop-color="#333"/>
      <stop offset=".89" stop-color="#171717"/>
      <stop offset=".95" stop-color="#060606"/>
      <stop offset="1" stop-color="#000"/>
    </linearGradient>
    <linearGradient id="linear-gradient-5" x1="703.03" y1="-721.37" x2="703.03" y2="1541.04" xlink:href="#linear-gradient-4"/>
    <linearGradient id="linear-gradient-6" x1="12.34" y1="393.32" x2="1393.73" y2="393.32" gradientUnits="userSpaceOnUse">
      <stop offset="0" stop-color="#333"/>
      <stop offset=".29" stop-color="#292929"/>
      <stop offset=".77" stop-color="#0f0f0f"/>
      <stop offset="1" stop-color="#000"/>
    </linearGradient>
    <linearGradient id="linear-gradient-7" x1="703.03" y1="17.07" x2="703.03" y2="46.75" xlink:href="#linear-gradient-3"/>
  </defs>
  <g class="cls-5">
    <g id="Capa_2" data-name="Capa 2">
      <g id="Capa_1-2" data-name="Capa 1">
        <g>
          <g>
            <g>
              <path class="cls-8" d="m845.89,1219.83l-.06-.28-142.77.14-142.76-.14-.06.28-304.54.3v17.05s1.18,6.46,10.63,7.04h873.48c9.45-.59,10.63-7.04,10.63-7.04v-17.05l-304.55-.3Z"/>
              <path class="cls-2" d="m1150.36,1220.13c.88-10.25-18.52-17.94-18.52-17.94,0,0-178.06-38.46-227.42-58.97-49.37-20.51-51.13-79.47-51.13-79.47v-243.82h-300.51v243.82s-1.76,58.96-51.13,79.47c-49.36,20.51-227.43,58.97-227.43,58.97,0,0-19.4,7.69-18.52,17.94,0,0-2.85,6.62,28.3,6.62h838.06c31.15,0,28.3-6.62,28.3-6.62Z"/>
              <rect class="cls-1" x="552.77" y="819.92" width="300.51" height="202.97"/>
            </g>
            <path class="cls-9" d="m1367.12,0H38.94C-.38,0,0,38.5,0,38.5v914.18s-.38,38.5,38.94,38.5h1328.17c39.32,0,38.95-38.5,38.95-38.5V38.5s.37-38.5-38.95-38.5Z"/>
            <path class="cls-6" d="m1357.31,3.11H48.75C10,3.11,10.37,41.26,10.37,41.26v905.86s-.37,38.14,38.38,38.14h1308.56c38.74,0,38.38-38.14,38.38-38.14V41.26s.36-38.15-38.38-38.15Z"/>
            <path class="cls-3" d="m1393.73,777.94V46.53s.37-37.83-38.25-37.83H50.59C11.96,8.7,12.34,46.53,12.34,46.53v731.41h1381.39Z"/>
            <path class="cls-4" d="m1393.73,777.94V46.53s.37-37.83-38.25-37.83H50.59C11.96,8.7,12.34,46.53,12.34,46.53v731.41h1381.39Z"/>
          </g>
          <path class="cls-7" d="m707.26,19.19c0,2.33-1.89,4.23-4.23,4.23s-4.23-1.89-4.23-4.23,1.89-4.23,4.23-4.23,4.23,1.89,4.23,4.23Z"/>
        </g>
      </g>
    </g>
  </g>
</svg>